# xmcd CD database file
#
# Track frame offsets:
#	150
#	21336
#	41240
#	63659
#	86202
#	98597
#	113471
#	134376
#	154969
#	179199
#	192675
#	204988
#	230414
#
# Disc length: 3250 seconds
#
# Revision: 0
# Processed by: cddbd v1.5.1PL0 Copyright (c) Steve Scherf et al.
# Submitted via: CDex 1.51
#
DISCID=be0cb00d
DTITLE=Max Gonzalez - LA ARAÑA1
DYEAR=1900
DGENRE=Salsa
TTITLE0=LLego la Habana (Descarga)
TTITLE1=La soledad
TTITLE2=Gunda merced
TTITLE3=Tù Y yo sabemos
TTITLE4=En mi casa se oye la rumba
TTITLE5=Pugilato
TTITLE6=Yo no tengo la culpa
TTITLE7=La arana, si tiene telebranas
TTITLE8=En casa de Lina
TTITLE9=Mi cosita
TTITLE10=Gonzalaramos
TTITLE11=La rumbantela
TTITLE12=Yo soy el son cubano
EXTD=
EXTT0=
EXTT1=
EXTT2=
EXTT3=
EXTT4=
EXTT5=
EXTT6=
EXTT7=
EXTT8=
EXTT9=
EXTT10=
EXTT11=
EXTT12=
PLAYORDER=
